<svg width="40" height="40" viewBox="0 0 40 40" fill="none" xmlns="http://www.w3.org/2000/svg">
<g clip-path="url(#clip0_1213_31)">
<path d="M20 40C31.0457 40 40 31.0457 40 20C40 8.95431 31.0457 0 20 0C8.95431 0 0 8.95431 0 20C0 31.0457 8.95431 40 20 40Z" fill="url(#paint0_linear_1213_31)"/>
<mask id="mask0_1213_31" style="mask-type:luminance" maskUnits="userSpaceOnUse" x="1" y="1" width="38" height="38">
<path d="M39 1H1V39H39V1Z" fill="white"/>
</mask>
<g mask="url(#mask0_1213_31)">
<path d="M20 39C30.4934 39 39 30.4934 39 20C39 9.50659 30.4934 1 20 1C9.50659 1 1 9.50659 1 20C1 30.4934 9.50659 39 20 39Z" fill="#2E3148"/>
<path d="M19.9999 31.0247C26.0887 31.0247 31.0246 26.0888 31.0246 20C31.0246 13.9112 26.0887 8.97528 19.9999 8.97528C13.9111 8.97528 8.97522 13.9112 8.97522 20C8.97522 26.0888 13.9111 31.0247 19.9999 31.0247Z" fill="#1B1E36"/>
<path d="M20.039 3.42392C17.9881 3.42392 16.3251 10.8628 16.3251 20.0392C16.3251 29.2156 17.9881 36.6545 20.039 36.6545C22.09 36.6545 23.753 29.2156 23.753 20.0392C23.753 10.8628 22.09 3.42392 20.039 3.42392ZM20.2955 35.7168C20.0609 36.0296 19.8264 35.7949 19.8264 35.7949C18.8819 34.7005 18.4096 32.6673 18.4096 32.6673C16.7575 27.3505 17.1507 15.9349 17.1507 15.9349C17.9272 6.87204 19.3395 4.73112 19.8202 4.25582C19.8692 4.20731 19.9339 4.17766 20.0026 4.1721C20.0714 4.16654 20.14 4.18542 20.1962 4.22542C20.8936 4.71957 21.4785 6.78616 21.4785 6.78616C23.2057 13.1977 23.0492 19.2182 23.0492 19.2182C23.2057 24.4569 22.1838 30.3211 22.1838 30.3211C21.3972 34.7777 20.2955 35.7168 20.2955 35.7168Z" fill="#6F7390"/>
<path d="M34.4508 11.7706C33.4297 9.99101 26.1503 12.2506 18.1868 16.817C10.2234 21.3834 4.60613 26.5281 5.6265 28.307C6.64688 30.0859 13.927 27.827 21.8905 23.2606C29.8539 18.6942 35.4712 13.5495 34.4508 11.7706ZM6.5686 28.0629C6.17766 28.0136 6.26597 27.6923 6.26597 27.6923C6.74553 26.3287 8.27161 24.9072 8.27161 24.9072C12.0629 20.8281 22.1612 15.4885 22.1612 15.4885C30.4078 11.6518 32.9693 11.8136 33.6191 11.9925C33.6858 12.0112 33.7437 12.0528 33.7827 12.11C33.8216 12.1673 33.8391 12.2365 33.8319 12.3054C33.7538 13.1566 32.2485 14.6918 32.2485 14.6918C27.5499 19.3823 22.2495 22.2433 22.2495 22.2433C17.7833 24.9869 12.1882 27.0174 12.1882 27.0174C7.93082 28.5516 6.5686 28.0629 6.5686 28.0629Z" fill="#6F7390"/>
<path d="M34.4148 28.3662C35.4439 26.5913 29.8407 21.423 21.9052 16.8223C13.9698 12.2215 6.69128 9.93393 5.66315 11.7119C4.63503 13.4898 10.2372 18.6551 18.1773 23.2558C26.1173 27.8566 33.3867 30.1443 34.4148 28.3662ZM6.34503 12.3977C6.19303 12.0373 6.5139 11.9505 6.5139 11.9505C7.93449 11.6822 9.92995 12.2936 9.92995 12.2936C15.3586 13.5298 25.0387 19.5934 25.0387 19.5934C32.4917 24.8087 33.6348 27.1058 33.8061 27.7579C33.8235 27.8248 33.8167 27.8957 33.787 27.9581C33.7572 28.0204 33.7064 28.0703 33.6434 28.0988C32.8663 28.4547 30.7848 27.9245 30.7848 27.9245C24.3693 26.2043 19.2385 23.0526 19.2385 23.0526C14.6285 20.5662 10.07 16.7403 10.07 16.7403C6.60631 13.8239 6.34609 12.4017 6.34609 12.4017L6.34503 12.3977Z" fill="#6F7390"/>
<path d="M20 21.9547C21.0796 21.9547 21.9547 21.0795 21.9547 20C21.9547 18.9204 21.0796 18.0453 20 18.0453C18.9204 18.0453 18.0453 18.9204 18.0453 20C18.0453 21.0795 18.9204 21.9547 20 21.9547Z" fill="#B7B9C8"/>
<path d="M28.0143 13.6666C28.6405 13.6666 29.1481 13.1415 29.1481 12.4938C29.1481 11.846 28.6405 11.321 28.0143 11.321C27.3882 11.321 26.8806 11.846 26.8806 12.4938C26.8806 13.1415 27.3882 13.6666 28.0143 13.6666Z" fill="#B7B9C8"/>
<path d="M9.40537 17.6544C10.0316 17.6544 10.5392 17.1293 10.5392 16.4815C10.5392 15.8338 10.0316 15.3087 9.40537 15.3087C8.77921 15.3087 8.27161 15.8338 8.27161 16.4815C8.27161 17.1293 8.77921 17.6544 9.40537 17.6544Z" fill="#B7B9C8"/>
<path d="M17.6934 32.0411C18.3196 32.0411 18.8272 31.516 18.8272 30.8683C18.8272 30.2206 18.3196 29.6955 17.6934 29.6955C17.0672 29.6955 16.5596 30.2206 16.5596 30.8683C16.5596 31.516 17.0672 32.0411 17.6934 32.0411Z" fill="#B7B9C8"/>
</g>
<path d="M6.73332 13.5C10.4152 13.5 13.4 10.5152 13.4 6.83332C13.4 3.15142 10.4152 0.166656 6.73332 0.166656C3.05142 0.166656 0.0666504 3.15142 0.0666504 6.83332C0.0666504 10.5152 3.05142 13.5 6.73332 13.5Z" fill="url(#paint1_linear_1213_31)"/>
<path d="M6.73332 12.5C9.86293 12.5 12.4 9.96294 12.4 6.83332C12.4 3.70371 9.86293 1.16666 6.73332 1.16666C3.6037 1.16666 1.06665 3.70371 1.06665 6.83332C1.06665 9.96294 3.6037 12.5 6.73332 12.5Z" fill="black"/>
<mask id="mask1_1213_31" style="mask-type:luminance" maskUnits="userSpaceOnUse" x="3" y="3" width="8" height="8">
<path d="M10.35 3H3V10.4463H10.35V3Z" fill="white"/>
</mask>
<g mask="url(#mask1_1213_31)">
<path d="M10.35 5.25419C10.35 5.13978 10.2912 5.0365 10.1929 4.97792L7.04201 3.10129C6.81561 2.96624 6.53438 2.96624 6.30798 3.10129L3.15715 4.97795C3.05998 5.03586 3.00162 5.13742 3.00004 5.25028C3.00009 5.38826 3.00016 5.61399 3.00018 5.752C2.99625 5.87083 3.05566 5.97892 3.15713 6.03938L4.26479 6.69933C4.28292 6.71014 4.28292 6.7364 4.26479 6.74718L3.15713 7.40689C3.05903 7.46539 3.00021 7.56841 3.00002 7.68261C3.00002 7.82267 3.00002 8.05181 3.00002 8.19186C3.00002 8.30654 3.05886 8.40979 3.15715 8.46814L6.30798 10.345C6.42118 10.4126 6.54802 10.4463 6.67513 10.4463C6.80223 10.4463 6.92881 10.4126 7.04201 10.345L10.1928 8.46814C10.2911 8.40979 10.35 8.30654 10.35 8.19186C10.35 8.05181 10.35 7.82267 10.35 7.68261C10.3498 7.56841 10.291 7.46539 10.1928 7.40691L9.08518 6.7472C9.06705 6.7364 9.06705 6.71014 9.08518 6.69936L10.1928 6.03941C10.2911 5.98083 10.35 5.87758 10.35 5.76314V5.25419ZM6.45693 6.28887C6.5242 6.24892 6.59966 6.22879 6.67513 6.22879C6.75059 6.22879 6.8258 6.2489 6.89308 6.28887L7.62215 6.72328L6.89308 7.15745C6.75854 7.23764 6.59148 7.23764 6.45693 7.15745L5.72787 6.72328L6.45693 6.28887ZM9.62072 7.91371C9.63884 7.92451 9.63884 7.95077 9.62072 7.96158L6.89308 9.58617C6.75854 9.66636 6.59148 9.66636 6.45693 9.58617L3.72928 7.96155C3.71115 7.95075 3.71115 7.92449 3.72928 7.91371L4.24044 7.60915C4.34033 7.54961 4.40153 7.44192 4.40153 7.32562V6.84673C4.40153 6.81854 4.43223 6.80108 4.45646 6.81549L6.30798 7.91626C6.42118 7.98352 6.54802 8.01729 6.67513 8.01729C6.80223 8.01729 6.92881 7.98352 7.04201 7.91626L7.58227 7.59438C7.68278 7.53449 7.74408 7.42587 7.74339 7.30888L7.74069 6.85814C7.74053 6.82985 7.77132 6.8122 7.79565 6.8267L9.62072 7.91371ZM8.9425 6.5956C8.9425 6.62379 8.9118 6.64125 8.88757 6.62685L7.04201 5.53001C6.81561 5.39523 6.53438 5.39523 6.30798 5.53001L5.76426 5.85387C5.66373 5.91376 5.60243 6.02238 5.60312 6.13939L5.60591 6.60071C5.60603 6.62239 5.58244 6.63589 5.56381 6.6248L3.7293 5.53259C3.71117 5.52178 3.71115 5.49552 3.7293 5.48472L6.45693 3.86012C6.5242 3.81991 6.59966 3.7998 6.67513 3.7998C6.75059 3.7998 6.8258 3.81991 6.89308 3.86012L9.62072 5.48472C9.63884 5.49552 9.63884 5.52178 9.62072 5.53259L9.10362 5.84063C9.0037 5.90014 8.9425 6.00785 8.9425 6.12415V6.5956Z" fill="white"/>
</g>
</g>
<defs>
<linearGradient id="paint0_linear_1213_31" x1="20" y1="0" x2="20" y2="40" gradientUnits="userSpaceOnUse">
<stop stop-color="#B977FF"/>
<stop offset="1" stop-color="#606DC8"/>
</linearGradient>
<linearGradient id="paint1_linear_1213_31" x1="2.7059" y1="0.166657" x2="9.83529" y2="13.5" gradientUnits="userSpaceOnUse">
<stop stop-color="#B977FF"/>
<stop offset="1" stop-color="#606DC8"/>
</linearGradient>
<clipPath id="clip0_1213_31">
<rect width="40" height="40" fill="white"/>
</clipPath>
</defs>
</svg>
