<svg width="44" height="43" viewBox="0 0 44 43" fill="none" xmlns="http://www.w3.org/2000/svg">
<g filter="url(#filter0_d_1210_3755)">
<g filter="url(#filter1_d_1210_3755)">
<path d="M36.1427 5.86C32.3633 2.08 27.3428 0 22.002 0C10.9721 0 2 8.972 2 20C2 31.028 10.9721 40 22.002 40C27.3428 40 32.3673 37.92 36.1427 34.14C39.9221 30.36 42 25.34 42 20C42 14.66 39.9221 9.636 36.1427 5.86ZM22.002 38.616C11.7368 38.616 3.38525 30.264 3.38525 20C3.38525 9.736 11.7368 1.384 22.002 1.384C32.2672 1.384 40.6188 9.736 40.6188 20C40.6188 30.264 32.2672 38.616 22.002 38.616Z" fill="#FF3912"/>
<path d="M36.0249 5.97784L36.0249 5.9779C39.773 9.72258 41.8333 14.7041 41.8333 20C41.8333 25.2958 39.773 30.2734 36.0249 34.0222L36.0248 34.0222C32.2807 37.7709 27.2986 39.8333 22.002 39.8333C11.0641 39.8333 2.16667 30.9359 2.16667 20C2.16667 9.06406 11.0641 0.166667 22.002 0.166667C27.2986 0.166667 32.2767 2.22909 36.0249 5.97784ZM3.21858 20C3.21858 30.356 11.6447 38.7827 22.002 38.7827C32.3593 38.7827 40.7854 30.356 40.7854 20C40.7854 9.64395 32.3593 1.21733 22.002 1.21733C11.6447 1.21733 3.21858 9.64395 3.21858 20Z" stroke="black" stroke-width="0.333333"/>
</g>
</g>
<path d="M32.7155 15.66C32.7155 15.3219 32.5416 15.0168 32.2512 14.8437L22.9421 9.29925C22.2732 8.90025 21.4423 8.90025 20.7734 9.29925L11.4643 14.8438C11.1772 15.0149 11.0048 15.315 11.0001 15.6484C11.0003 16.0561 11.0005 16.723 11.0005 17.1307C10.9889 17.4818 11.1645 17.8012 11.4642 17.9798L14.7368 19.9296C14.7904 19.9615 14.7904 20.0391 14.7368 20.071L11.4642 22.0201C11.1744 22.1929 11.0006 22.4973 11.0001 22.8347C11.0001 23.2485 11.0001 23.9255 11.0001 24.3393C11.0001 24.6781 11.1739 24.9832 11.4643 25.1555L20.7734 30.7008C21.1078 30.9003 21.4826 31 21.8581 31C22.2336 31 22.6076 30.9003 22.9421 30.7008L32.2511 25.1555C32.5415 24.9832 32.7154 24.6781 32.7154 24.3393C32.7154 23.9255 32.7154 23.2485 32.7154 22.8347C32.7148 22.4973 32.541 22.1929 32.2511 22.0202L28.9786 20.0711C28.925 20.0391 28.925 19.9615 28.9786 19.9297L32.2511 17.9799C32.5415 17.8068 32.7154 17.5018 32.7154 17.1636V15.6601L32.7155 15.66ZM21.2135 18.7169C21.4122 18.5989 21.6351 18.5394 21.8581 18.5394C22.0811 18.5394 22.3033 18.5988 22.5021 18.7169L24.6561 20.0004L22.5021 21.2831C22.1045 21.52 21.611 21.52 21.2135 21.2831L19.0594 20.0004L21.2135 18.7169ZM30.5608 23.5175C30.6144 23.5494 30.6144 23.627 30.5608 23.6589L22.5021 28.4587C22.1045 28.6957 21.611 28.6957 21.2135 28.4587L13.1546 23.6588C13.1011 23.6269 13.1011 23.5493 13.1546 23.5175L14.6649 22.6177C14.96 22.4418 15.1408 22.1236 15.1408 21.78V20.3651C15.1408 20.2818 15.2315 20.2302 15.3031 20.2728L20.7734 23.525C21.1078 23.7237 21.4826 23.8235 21.8581 23.8235C22.2336 23.8235 22.6076 23.7237 22.9421 23.525L24.5383 22.574C24.8352 22.3971 25.0163 22.0762 25.0143 21.7305L25.0063 20.3988C25.0058 20.3152 25.0968 20.2631 25.1687 20.3059L30.5608 23.5175ZM28.557 19.6232C28.557 19.7064 28.4663 19.758 28.3947 19.7155L22.9421 16.4749C22.2732 16.0767 21.4423 16.0767 20.7734 16.4749L19.167 17.4317C18.8699 17.6087 18.6888 17.9296 18.6909 18.2753L18.6991 19.6382C18.6995 19.7023 18.6298 19.7422 18.5748 19.7094L13.1547 16.4825C13.1012 16.4506 13.1011 16.373 13.1547 16.3411L21.2135 11.5412C21.4122 11.4224 21.6351 11.363 21.8581 11.363C22.0811 11.363 22.3033 11.4224 22.5021 11.5412L30.5608 16.3411C30.6144 16.373 30.6144 16.4506 30.5608 16.4825L29.033 17.3926C28.7378 17.5684 28.557 17.8867 28.557 18.2303V19.6232Z" fill="#FF3912"/>
<defs>
<filter id="filter0_d_1210_3755" x="0.666667" y="0" width="42.6667" height="42.6667" filterUnits="userSpaceOnUse" color-interpolation-filters="sRGB">
<feFlood flood-opacity="0" result="BackgroundImageFix"/>
<feColorMatrix in="SourceAlpha" type="matrix" values="0 0 0 0 0 0 0 0 0 0 0 0 0 0 0 0 0 0 127 0" result="hardAlpha"/>
<feOffset dy="1.33333"/>
<feGaussianBlur stdDeviation="0.666667"/>
<feComposite in2="hardAlpha" operator="out"/>
<feColorMatrix type="matrix" values="0 0 0 0 0 0 0 0 0 0 0 0 0 0 0 0 0 0 0.25 0"/>
<feBlend mode="normal" in2="BackgroundImageFix" result="effect1_dropShadow_1210_3755"/>
<feBlend mode="normal" in="SourceGraphic" in2="effect1_dropShadow_1210_3755" result="shape"/>
</filter>
<filter id="filter1_d_1210_3755" x="0.666667" y="0" width="42.6667" height="42.6667" filterUnits="userSpaceOnUse" color-interpolation-filters="sRGB">
<feFlood flood-opacity="0" result="BackgroundImageFix"/>
<feColorMatrix in="SourceAlpha" type="matrix" values="0 0 0 0 0 0 0 0 0 0 0 0 0 0 0 0 0 0 127 0" result="hardAlpha"/>
<feOffset dy="1.33333"/>
<feGaussianBlur stdDeviation="0.666667"/>
<feComposite in2="hardAlpha" operator="out"/>
<feColorMatrix type="matrix" values="0 0 0 0 0 0 0 0 0 0 0 0 0 0 0 0 0 0 0.25 0"/>
<feBlend mode="normal" in2="BackgroundImageFix" result="effect1_dropShadow_1210_3755"/>
<feBlend mode="normal" in="SourceGraphic" in2="effect1_dropShadow_1210_3755" result="shape"/>
</filter>
</defs>
</svg>
