<svg width="40" height="40" viewBox="0 0 40 40" fill="none" xmlns="http://www.w3.org/2000/svg">
<path d="M20 40C31.0457 40 40 31.0457 40 20C40 8.95431 31.0457 0 20 0C8.95431 0 0 8.95431 0 20C0 31.0457 8.95431 40 20 40Z" fill="url(#paint0_linear_1250_11)"/>
<circle cx="20" cy="20" r="19" fill="#1A154F"/>
<path d="M32.4822 10.9974C32.1996 9.90909 31.2912 8.82077 29.6561 7.60925C28.344 6.64415 26.9511 6.08972 25.8409 6.08972C25.6188 6.08972 25.4169 6.11025 25.2151 6.15132C24.7104 6.25399 24.2663 6.62361 23.9837 7.17804C23.6405 7.83513 23.5597 8.7181 23.7818 9.25199C23.8626 9.41626 23.9635 9.62161 24.0846 9.80641C23.0147 10.4635 22.4091 10.6483 22.3284 10.6689C25.1141 11.6134 27.4356 13.5847 28.8891 16.1515L28.9092 15.9051C28.9698 15.2274 29.1717 14.4471 29.4542 13.6463C29.7368 13.7284 30.0195 13.7695 30.3021 13.7695C31.049 13.7695 31.6949 13.4615 32.0987 12.9071C32.5024 12.3527 32.6639 11.6134 32.4822 10.9974Z" fill="#5E12A0"/>
<path d="M29.5754 13.0508C31.4124 13.5641 32.1593 12.1267 31.917 11.1616C31.6546 10.1965 30.8068 9.21084 29.313 8.102C27.8192 6.99315 26.3052 6.54139 25.3362 6.74673C24.3673 6.95208 24.0846 8.45108 24.3269 9.02603C24.4278 9.25191 24.6499 9.58046 24.9527 9.95007C24.5691 10.217 24.2057 10.4224 23.903 10.6072C25.7601 11.4491 27.3751 12.7633 28.5863 14.406C28.7276 13.8516 28.9294 13.3588 29.1111 12.9275C29.2524 12.948 29.4139 12.9891 29.5754 13.0508Z" fill="url(#paint1_radial_1250_11)"/>
<path d="M19.0582 33.1741C25.2903 33.1741 30.3425 28.035 30.3425 21.6955C30.3425 15.3561 25.2903 10.2169 19.0582 10.2169C12.826 10.2169 7.7738 15.3561 7.7738 21.6955C7.7738 28.035 12.826 33.1741 19.0582 33.1741Z" fill="url(#paint2_radial_1250_11)"/>
<path opacity="0.6" d="M30.9885 10.217C29.4543 8.57422 28.1624 8.143 26.608 7.79392C25.3968 7.50644 25.7198 6.80828 27.1934 6.95202C26.4869 6.70561 25.8207 6.644 25.3363 6.74668C24.3673 6.95202 24.0846 8.45101 24.3269 9.02598C24.4278 9.25185 24.6499 9.5804 24.9527 9.95001C24.4077 10.3196 23.9433 10.5866 23.5598 10.7919C23.7415 10.8741 23.9635 10.9767 24.226 11.1205C24.9123 11.4901 25.6592 12.1061 25.6592 12.1061C24.5288 11.1205 24.771 10.6687 26.3254 9.55986C26.8098 9.21078 27.6981 9.25185 28.5257 9.68307C29.3534 10.1143 30.3224 11.2026 30.3224 11.2026L29.3938 13.0096C29.4543 13.0302 29.5149 13.0507 29.5754 13.0712C30.1609 13.2355 30.6251 13.1944 30.9885 13.0507C31.4124 12.7837 32.5227 11.8802 30.9885 10.217Z" fill="#A98698"/>
<path d="M26.5878 8.77972C26.9915 8.944 27.5164 9.23147 28.1624 9.66269C28.9295 10.1761 29.5956 10.751 30.0195 11.2028C29.313 12.1473 28.8487 13.441 28.5661 14.3445C28.7074 14.5498 28.8689 14.7552 29.0102 14.9605C29.1515 14.4472 29.3937 13.6874 29.7167 12.9276C29.7974 12.9482 29.8984 12.9482 29.9994 12.9482C30.2416 12.9482 30.5242 12.9071 30.7462 12.7223C30.9077 12.5991 31.0894 12.3732 31.0692 11.9625C31.0692 11.5724 30.7664 11.0796 30.1407 10.4841C29.6965 10.0528 29.091 9.58056 28.4853 9.14934C26.7493 7.97889 25.5381 7.65034 24.9931 8.20476C24.6297 8.57438 24.67 9.02613 24.7912 9.35468C24.1452 9.7859 23.6002 10.0939 23.2368 10.2993C23.479 10.3814 23.7011 10.4841 23.9434 10.5867C24.5893 10.2377 25.5179 9.64216 26.5878 8.77972ZM30.4031 11.7161C30.4636 11.8188 30.4838 11.9215 30.4838 11.983C30.4838 12.1678 30.4232 12.2295 30.3829 12.2706C30.3021 12.3322 30.1407 12.3732 29.9994 12.3732C30.1205 12.1268 30.2618 11.9215 30.4031 11.7161ZM25.417 8.65652C25.4775 8.59491 25.639 8.55384 25.9015 8.59491C25.6996 8.75919 25.4977 8.90293 25.2959 9.04666C25.2757 8.90293 25.2959 8.75919 25.417 8.65652Z" fill="#5E12A0"/>
<path d="M19.0582 9.53937C12.4571 9.53937 7.10767 14.9809 7.10767 21.6956C7.10767 28.4103 12.4571 33.8519 19.0582 33.8519C25.6592 33.8519 31.0087 28.4103 31.0087 21.6956C31.0087 14.9809 25.639 9.53937 19.0582 9.53937ZM19.0582 33.1743C12.8205 33.1743 7.77383 28.0407 7.77383 21.6956C7.77383 15.3506 12.8205 10.217 19.0582 10.217C25.2958 10.217 30.3425 15.3506 30.3425 21.6956C30.3425 28.0407 25.2756 33.1743 19.0582 33.1743Z" fill="#5E12A0"/>
<path opacity="0.6" d="M19.0582 33.1744C25.2903 33.1744 30.3425 28.0353 30.3425 21.6958C30.3425 15.3563 25.2903 10.2172 19.0582 10.2172C12.826 10.2172 7.7738 15.3563 7.7738 21.6958C7.7738 28.0353 12.826 33.1744 19.0582 33.1744Z" fill="url(#paint3_linear_1250_11)"/>
<path opacity="0.6" d="M18.9774 31.7781C12.8204 30.7719 8.6418 24.8787 9.65113 18.6157C10.0952 15.8436 11.4679 13.4821 13.4059 11.7778C10.5797 13.4411 8.48031 16.3364 7.91509 19.8683C6.92594 26.1312 11.1046 32.0245 17.2413 33.0307C20.673 33.6057 23.9837 32.5174 26.4262 30.3818C24.2663 31.6549 21.642 32.2093 18.9774 31.7781Z" fill="#A98698"/>
<path opacity="0.6" d="M20.8548 10.3814C18.0085 9.90915 15.2429 10.5662 12.982 12.0242C12.9416 12.0653 12.9012 12.1063 12.9012 12.1063C13.7693 11.5724 15.041 11.1001 15.041 11.1001C11.7708 13.0303 10.7615 15.2275 10.7615 15.2275C12.0332 12.7224 15.7677 10.9564 18.6948 10.8332C21.6219 10.71 23.5396 11.593 25.8813 13.5026C28.2229 15.4329 29.636 19.3754 29.4947 22.4966C29.3736 25.6178 27.7586 28.1435 27.7586 28.1435C28.8689 26.6856 29.5351 25.6178 29.9589 24.5295C30.0397 24.2009 30.1205 23.8724 30.1609 23.5233C31.1702 17.2809 27.0117 11.3876 20.8548 10.3814Z" fill="url(#paint4_linear_1250_11)"/>
<path d="M29.7773 21.593C29.7773 27.6096 24.9728 32.4967 19.0581 32.4967C13.1435 32.4967 8.31885 27.6096 8.31885 21.593H29.7773Z" fill="url(#paint5_linear_1250_11)"/>
<path opacity="0.6" d="M28.9294 21.593C28.9294 27.4658 24.3673 32.2708 18.6343 32.4967C18.7756 32.4967 18.9169 32.4967 19.0582 32.4967C24.9729 32.4967 29.7773 27.6096 29.7773 21.593H28.9294Z" fill="url(#paint6_linear_1250_11)"/>
<path opacity="0.7" d="M9.83284 21.593H8.31885C8.31885 27.6096 13.1233 32.4967 19.038 32.4967C19.3004 32.4967 19.5426 32.4967 19.7849 32.4762C14.2335 32.0655 9.83284 27.3426 9.83284 21.593Z" fill="url(#paint7_linear_1250_11)"/>
<path d="M29.7571 21.6957C29.7571 20.4432 27.6172 19.7245 24.771 19.4781C22.7119 19.3138 20.6327 19.5191 18.2507 20.2584C16.1916 20.8744 14.3345 20.7717 12.982 20.6075C9.97415 20.2584 8.31885 20.2173 8.31885 21.6957C8.31885 23.8313 12.5984 26.5008 19.0178 25.5767C22.2678 25.1044 23.9433 24.1393 25.8611 23.4822C27.9403 22.7841 29.7571 22.8046 29.7571 21.6957Z" fill="url(#paint8_linear_1250_11)"/>
<path d="M22.5707 16.5211C23.5741 16.5211 24.3875 15.6937 24.3875 14.673C24.3875 13.6524 23.5741 12.825 22.5707 12.825C21.5673 12.825 20.7539 13.6524 20.7539 14.673C20.7539 15.6937 21.5673 16.5211 22.5707 16.5211Z" fill="white"/>
<path d="M25.5381 17.8968C25.9618 17.8968 26.3052 17.5475 26.3052 17.1165C26.3052 16.6856 25.9618 16.3362 25.5381 16.3362C25.1144 16.3362 24.771 16.6856 24.771 17.1165C24.771 17.5475 25.1144 17.8968 25.5381 17.8968Z" fill="white"/>
<path opacity="0.6" d="M28.2834 13.1946C28.2632 13.1946 28.243 13.1946 28.243 13.1946C28.1219 13.1741 28.0411 13.0509 28.0613 12.9071C28.243 11.9625 29.0101 11.059 29.0505 11.018C29.1313 10.9153 29.2927 10.9153 29.3735 10.9974C29.4744 11.0796 29.4744 11.2438 29.3937 11.326C29.3735 11.3465 28.6669 12.1884 28.5055 13.0097C28.4853 13.133 28.3843 13.1946 28.2834 13.1946Z" fill="url(#paint9_linear_1250_11)"/>
<path opacity="0.2" d="M18.3127 30.2585C18.6248 30.2585 18.8779 30.0011 18.8779 29.6835C18.8779 29.366 18.6248 29.1086 18.3127 29.1086C18.0005 29.1086 17.7474 29.366 17.7474 29.6835C17.7474 30.0011 18.0005 30.2585 18.3127 30.2585Z" fill="white"/>
<path opacity="0.6" d="M17.9882 30.0538C17.7662 29.8279 17.7662 29.4583 17.9882 29.2325C18.0286 29.1914 18.069 29.1709 18.1094 29.1298C18.0286 29.1504 17.9681 29.1914 17.9075 29.253C17.6855 29.4789 17.6855 29.8485 17.9075 30.0744C18.0892 30.2592 18.3718 30.3002 18.5939 30.177C18.3919 30.2592 18.1497 30.2181 17.9882 30.0538Z" fill="url(#paint10_linear_1250_11)"/>
<path opacity="0.3" d="M18.5132 29.5193C18.5801 29.5193 18.6343 29.4642 18.6343 29.3961C18.6343 29.3281 18.5801 29.2729 18.5132 29.2729C18.4463 29.2729 18.3921 29.3281 18.3921 29.3961C18.3921 29.4642 18.4463 29.5193 18.5132 29.5193Z" fill="white"/>
<path opacity="0.2" d="M21.2598 29.971C21.572 29.971 21.825 29.7136 21.825 29.396C21.825 29.0785 21.572 28.8211 21.2598 28.8211C20.9477 28.8211 20.6946 29.0785 20.6946 29.396C20.6946 29.7136 20.9477 29.971 21.2598 29.971Z" fill="white"/>
<path opacity="0.6" d="M20.9355 29.766C20.7135 29.5401 20.7135 29.1705 20.9355 28.9446C20.9759 28.9036 21.0162 28.883 21.0566 28.842C20.9759 28.8625 20.9153 28.9036 20.8548 28.9652C20.6327 29.191 20.6327 29.5607 20.8548 29.7865C21.0364 29.9714 21.319 30.0124 21.5411 29.8892C21.3392 29.9714 21.097 29.9303 20.9355 29.766Z" fill="url(#paint11_linear_1250_11)"/>
<path opacity="0.3" d="M21.4605 29.2319C21.5273 29.2319 21.5816 29.1767 21.5816 29.1087C21.5816 29.0407 21.5273 28.9855 21.4605 28.9855C21.3935 28.9855 21.3394 29.0407 21.3394 29.1087C21.3394 29.1767 21.3935 29.2319 21.4605 29.2319Z" fill="white"/>
<path opacity="0.2" d="M19.8051 31.3058C20.0392 31.3058 20.229 31.1127 20.229 30.8745C20.229 30.6364 20.0392 30.4433 19.8051 30.4433C19.571 30.4433 19.3812 30.6364 19.3812 30.8745C19.3812 31.1127 19.571 31.3058 19.8051 31.3058Z" fill="white"/>
<path opacity="0.6" d="M19.5629 31.1421C19.4014 30.9778 19.4014 30.6903 19.5629 30.5261C19.5831 30.5055 19.6235 30.485 19.6436 30.4645C19.5831 30.485 19.5427 30.5261 19.5023 30.5671C19.3409 30.7314 19.3409 31.0189 19.5023 31.1832C19.6436 31.3269 19.8455 31.3474 20.0272 31.2448C19.8657 31.3064 19.684 31.2653 19.5629 31.1421Z" fill="url(#paint12_linear_1250_11)"/>
<path opacity="0.3" d="M19.9465 30.7307C19.9911 30.7307 20.0272 30.6939 20.0272 30.6485C20.0272 30.6032 19.9911 30.5664 19.9465 30.5664C19.9019 30.5664 19.8657 30.6032 19.8657 30.6485C19.8657 30.6939 19.9019 30.7307 19.9465 30.7307Z" fill="white"/>
<path opacity="0.2" d="M22.4091 30.9977C22.6433 30.9977 22.8331 30.8046 22.8331 30.5664C22.8331 30.3283 22.6433 30.1352 22.4091 30.1352C22.175 30.1352 21.9852 30.3283 21.9852 30.5664C21.9852 30.8046 22.175 30.9977 22.4091 30.9977Z" fill="white"/>
<path opacity="0.6" d="M22.1669 30.8339C22.0054 30.6697 22.0054 30.3822 22.1669 30.218C22.1871 30.1974 22.2275 30.1769 22.2476 30.1564C22.1871 30.1769 22.1467 30.218 22.1063 30.259C21.9449 30.4233 21.9449 30.7107 22.1063 30.8751C22.2476 31.0188 22.4495 31.0393 22.6312 30.9367C22.4697 30.9983 22.288 30.9572 22.1669 30.8339Z" fill="url(#paint13_linear_1250_11)"/>
<path opacity="0.3" d="M22.5505 30.4226C22.5951 30.4226 22.6312 30.3858 22.6312 30.3404C22.6312 30.2951 22.5951 30.2583 22.5505 30.2583C22.5059 30.2583 22.4697 30.2951 22.4697 30.3404C22.4697 30.3858 22.5059 30.4226 22.5505 30.4226Z" fill="white"/>
<path opacity="0.2" d="M15.9091 30.0531C16.4219 30.0531 16.8376 29.6302 16.8376 29.1085C16.8376 28.5869 16.4219 28.1639 15.9091 28.1639C15.3962 28.1639 14.9805 28.5869 14.9805 29.1085C14.9805 29.6302 15.3962 30.0531 15.9091 30.0531Z" fill="white"/>
<path opacity="0.6" d="M15.3847 29.704C15.0214 29.3343 15.0214 28.7388 15.3847 28.3693C15.4453 28.3077 15.5058 28.2666 15.5866 28.2255C15.4654 28.2666 15.3645 28.3487 15.2636 28.4308C14.9003 28.8005 14.9003 29.3959 15.2636 29.7656C15.5664 30.0736 16.0307 30.1352 16.394 29.9093C16.0509 30.053 15.6471 29.9914 15.3847 29.704Z" fill="url(#paint14_linear_1250_11)"/>
<path opacity="0.3" d="M16.2321 28.8212C16.3436 28.8212 16.434 28.7292 16.434 28.6158C16.434 28.5024 16.3436 28.4105 16.2321 28.4105C16.1206 28.4105 16.0303 28.5024 16.0303 28.6158C16.0303 28.7292 16.1206 28.8212 16.2321 28.8212Z" fill="white"/>
<path opacity="0.2" d="M24.2062 27.7328C24.7191 27.7328 25.1348 27.3099 25.1348 26.7882C25.1348 26.2665 24.7191 25.8436 24.2062 25.8436C23.6934 25.8436 23.2777 26.2665 23.2777 26.7882C23.2777 27.3099 23.6934 27.7328 24.2062 27.7328Z" fill="white"/>
<path opacity="0.6" d="M23.6608 27.3836C23.2974 27.014 23.2974 26.4185 23.6608 26.0489C23.7213 25.9873 23.7819 25.9462 23.8626 25.9052C23.7415 25.9462 23.6406 26.0283 23.5396 26.1105C23.1762 26.4801 23.1762 27.0756 23.5396 27.4452C23.8424 27.7532 24.3067 27.8148 24.6701 27.5889C24.3269 27.7327 23.9433 27.6711 23.6608 27.3836Z" fill="url(#paint15_linear_1250_11)"/>
<path d="M6.73332 13.5C10.4152 13.5 13.4 10.5152 13.4 6.83329C13.4 3.15139 10.4152 0.166626 6.73332 0.166626C3.05142 0.166626 0.0666504 3.15139 0.0666504 6.83329C0.0666504 10.5152 3.05142 13.5 6.73332 13.5Z" fill="url(#paint16_linear_1250_11)"/>
<path d="M6.73332 12.5C9.86293 12.5 12.4 9.96291 12.4 6.83329C12.4 3.70368 9.86293 1.16663 6.73332 1.16663C3.6037 1.16663 1.06665 3.70368 1.06665 6.83329C1.06665 9.96291 3.6037 12.5 6.73332 12.5Z" fill="black"/>
<g clip-path="url(#clip0_1250_11)">
<path d="M10.35 5.25419C10.35 5.13978 10.2912 5.0365 10.1929 4.97792L7.04201 3.10129C6.81561 2.96624 6.53438 2.96624 6.30798 3.10129L3.15715 4.97795C3.05998 5.03586 3.00162 5.13742 3.00004 5.25028C3.00009 5.38826 3.00016 5.61399 3.00018 5.752C2.99625 5.87083 3.05566 5.97892 3.15713 6.03938L4.26479 6.69933C4.28292 6.71014 4.28292 6.7364 4.26479 6.74718L3.15713 7.40689C3.05903 7.46539 3.00021 7.56841 3.00002 7.68261C3.00002 7.82267 3.00002 8.05181 3.00002 8.19186C3.00002 8.30654 3.05886 8.40979 3.15715 8.46814L6.30798 10.345C6.42118 10.4126 6.54802 10.4463 6.67513 10.4463C6.80223 10.4463 6.92881 10.4126 7.04201 10.345L10.1928 8.46814C10.2911 8.40979 10.35 8.30654 10.35 8.19186C10.35 8.05181 10.35 7.82267 10.35 7.68261C10.3498 7.56841 10.291 7.46539 10.1928 7.40691L9.08518 6.7472C9.06705 6.7364 9.06705 6.71014 9.08518 6.69936L10.1928 6.03941C10.2911 5.98083 10.35 5.87758 10.35 5.76314V5.25422L10.35 5.25419ZM6.45693 6.28887C6.5242 6.24892 6.59966 6.22879 6.67513 6.22879C6.75059 6.22879 6.8258 6.2489 6.89308 6.28887L7.62215 6.72328L6.89308 7.15745C6.75854 7.23764 6.59148 7.23764 6.45693 7.15745L5.72787 6.72328L6.45693 6.28887ZM9.62072 7.91371C9.63884 7.92451 9.63884 7.95077 9.62072 7.96158L6.89308 9.58617C6.75854 9.66636 6.59148 9.66636 6.45693 9.58617L3.72928 7.96155C3.71115 7.95075 3.71115 7.92449 3.72928 7.91371L4.24044 7.60915C4.34033 7.54961 4.40153 7.44192 4.40153 7.32562V6.84673C4.40153 6.81854 4.43223 6.80108 4.45646 6.81549L6.30798 7.91626C6.42118 7.98352 6.54802 8.01729 6.67513 8.01729C6.80223 8.01729 6.92881 7.98352 7.04201 7.91626L7.58227 7.59438C7.68278 7.53449 7.74408 7.42587 7.74339 7.30888L7.74069 6.85814C7.74053 6.82985 7.77132 6.8122 7.79565 6.8267L9.62072 7.91371ZM8.9425 6.5956C8.9425 6.62379 8.9118 6.64125 8.88757 6.62685L7.04201 5.53001C6.81561 5.39523 6.53438 5.39523 6.30798 5.53001L5.76426 5.85387C5.66373 5.91376 5.60243 6.02238 5.60312 6.13939L5.60591 6.60071C5.60603 6.62239 5.58244 6.63589 5.56381 6.6248L3.7293 5.53259C3.71117 5.52178 3.71115 5.49552 3.7293 5.48472L6.45693 3.86012C6.5242 3.81991 6.59966 3.7998 6.67513 3.7998C6.75059 3.7998 6.8258 3.81991 6.89308 3.86012L9.62072 5.48472C9.63884 5.49552 9.63884 5.52178 9.62072 5.53259L9.10362 5.84063C9.0037 5.90014 8.9425 6.00785 8.9425 6.12415V6.5956Z" fill="white"/>
</g>
<defs>
<linearGradient id="paint0_linear_1250_11" x1="20" y1="0" x2="20" y2="40" gradientUnits="userSpaceOnUse">
<stop stop-color="#B977FF"/>
<stop offset="1" stop-color="#606DC8"/>
</linearGradient>
<radialGradient id="paint1_radial_1250_11" cx="0" cy="0" r="1" gradientUnits="userSpaceOnUse" gradientTransform="translate(31.5489 9.86792) scale(9.02227 9.17762)">
<stop stop-color="#FFEAFF" stop-opacity="0.6"/>
<stop offset="0.6807" stop-color="#A087C9"/>
<stop offset="1" stop-color="#10002F"/>
</radialGradient>
<radialGradient id="paint2_radial_1250_11" cx="0" cy="0" r="1" gradientUnits="userSpaceOnUse" gradientTransform="translate(26.5293 13.782) scale(22.0743 22.4544)">
<stop stop-color="#FFEAFF" stop-opacity="0.6"/>
<stop offset="0.6807" stop-color="#A087C9"/>
<stop offset="1" stop-color="#10002F"/>
</radialGradient>
<linearGradient id="paint3_linear_1250_11" x1="17.2481" y1="33.0116" x2="20.9794" y2="10.3811" gradientUnits="userSpaceOnUse">
<stop stop-color="#81FFFF"/>
<stop offset="0.6202" stop-color="white" stop-opacity="0"/>
</linearGradient>
<linearGradient id="paint4_linear_1250_11" x1="27.0108" y1="13.9003" x2="17.5342" y2="22.448" gradientUnits="userSpaceOnUse">
<stop offset="0.2888" stop-color="white"/>
<stop offset="0.7796" stop-color="white" stop-opacity="0"/>
</linearGradient>
<linearGradient id="paint5_linear_1250_11" x1="8.32793" y1="27.0385" x2="29.7721" y2="27.0385" gradientUnits="userSpaceOnUse">
<stop stop-color="#0002E9"/>
<stop offset="0.9952" stop-color="#FF00C7"/>
</linearGradient>
<linearGradient id="paint6_linear_1250_11" x1="30.7872" y1="22.5498" x2="18.9275" y2="33.5682" gradientUnits="userSpaceOnUse">
<stop offset="0.2888" stop-color="white"/>
<stop offset="0.7796" stop-color="white" stop-opacity="0"/>
</linearGradient>
<linearGradient id="paint7_linear_1250_11" x1="8.32793" y1="27.0385" x2="19.8004" y2="27.0385" gradientUnits="userSpaceOnUse">
<stop stop-color="#000292"/>
<stop offset="0.9952" stop-color="#7D00C7"/>
</linearGradient>
<linearGradient id="paint8_linear_1250_11" x1="8.34232" y1="22.6016" x2="29.7577" y2="22.6016" gradientUnits="userSpaceOnUse">
<stop stop-color="#000292"/>
<stop offset="0.9952" stop-color="#BE00C7"/>
</linearGradient>
<linearGradient id="paint9_linear_1250_11" x1="29.4062" y1="10.918" x2="27.8287" y2="13.4381" gradientUnits="userSpaceOnUse">
<stop offset="0.2888" stop-color="white"/>
<stop offset="0.7796" stop-color="white" stop-opacity="0"/>
</linearGradient>
<linearGradient id="paint10_linear_1250_11" x1="17.7404" y1="29.7018" x2="18.5944" y2="29.7018" gradientUnits="userSpaceOnUse">
<stop offset="0.2888" stop-color="white"/>
<stop offset="0.7796" stop-color="white" stop-opacity="0"/>
</linearGradient>
<linearGradient id="paint11_linear_1250_11" x1="20.6856" y1="29.4101" x2="21.5397" y2="29.4101" gradientUnits="userSpaceOnUse">
<stop offset="0.2888" stop-color="white"/>
<stop offset="0.7796" stop-color="white" stop-opacity="0"/>
</linearGradient>
<linearGradient id="paint12_linear_1250_11" x1="19.3786" y1="30.88" x2="20.0198" y2="30.88" gradientUnits="userSpaceOnUse">
<stop offset="0.2888" stop-color="white"/>
<stop offset="0.7796" stop-color="white" stop-opacity="0"/>
</linearGradient>
<linearGradient id="paint13_linear_1250_11" x1="21.9738" y1="30.5711" x2="22.615" y2="30.5711" gradientUnits="userSpaceOnUse">
<stop offset="0.2888" stop-color="white"/>
<stop offset="0.7796" stop-color="white" stop-opacity="0"/>
</linearGradient>
<linearGradient id="paint14_linear_1250_11" x1="14.9818" y1="29.1325" x2="16.3766" y2="29.1325" gradientUnits="userSpaceOnUse">
<stop offset="0.2888" stop-color="white"/>
<stop offset="0.7796" stop-color="white" stop-opacity="0"/>
</linearGradient>
<linearGradient id="paint15_linear_1250_11" x1="23.2655" y1="26.8115" x2="24.6604" y2="26.8115" gradientUnits="userSpaceOnUse">
<stop offset="0.2888" stop-color="white"/>
<stop offset="0.7796" stop-color="white" stop-opacity="0"/>
</linearGradient>
<linearGradient id="paint16_linear_1250_11" x1="2.7059" y1="0.166626" x2="9.83529" y2="13.5" gradientUnits="userSpaceOnUse">
<stop stop-color="#B977FF"/>
<stop offset="1" stop-color="#606DC8"/>
</linearGradient>
<clipPath id="clip0_1250_11">
<rect width="7.35" height="7.44631" fill="white" transform="translate(3 3)"/>
</clipPath>
</defs>
</svg>
