<svg width="40" height="40" viewBox="0 0 40 40" fill="none" xmlns="http://www.w3.org/2000/svg">
<path d="M20 40C31.0457 40 40 31.0457 40 20C40 8.95431 31.0457 0 20 0C8.95431 0 0 8.95431 0 20C0 31.0457 8.95431 40 20 40Z" fill="url(#paint0_linear_1250_17)"/>
<path d="M20 39C30.4934 39 39 30.4934 39 20C39 9.50659 30.4934 1 20 1C9.50659 1 1 9.50659 1 20C1 30.4934 9.50659 39 20 39Z" fill="#7B2CF9"/>
<path d="M34.4074 24.8724C32.0307 31.563 25.699 35.7099 18.7911 35.1493C11.8892 34.5891 6.27816 29.4507 5.03859 22.5554C3.24968 12.6041 11.7845 3.65431 21.8567 4.91964C31.4224 6.12134 37.4467 15.6554 34.4074 24.8724ZM20.4763 12.2678C20.2664 13.0457 20.0151 13.8151 19.8537 14.603C19.0381 18.5832 19.0752 22.5635 19.8643 26.5478C19.928 26.8693 19.8194 27.4104 19.5944 27.5675C19.0183 27.9696 18.3437 28.1611 17.6288 27.7503C16.419 27.0552 15.1364 26.4748 13.9776 25.7057C10.7638 23.5726 8.05235 20.9787 6.70715 17.2256C6.67994 17.1497 6.57877 17.1003 6.5079 17.0347C6.44096 17.1195 6.38727 17.157 6.37835 17.2032C5.67363 20.8487 6.26947 24.2596 8.22607 27.4236C8.5449 27.9391 8.77003 27.8628 9.08928 27.3745C9.60147 26.5912 10.1918 25.8583 10.7629 25.1146C11.0497 24.741 11.3832 24.4979 11.838 24.9062C12.3309 25.3487 11.9517 25.6347 11.6863 25.9839C11.1201 26.7286 10.5074 27.456 10.0665 28.2731C9.55322 29.2241 9.88517 29.8889 10.953 29.9963C11.9808 30.0997 13.0631 30.1222 14.0679 29.9173C19.7288 28.7627 24.7143 26.1352 29.3007 22.6943C29.5173 22.5318 29.694 22.1686 29.6989 21.8954C29.7284 20.2567 29.7971 18.6097 29.673 16.9792C29.4699 14.3108 28.9453 11.6961 27.5842 9.3409C26.9331 8.21425 26.1794 7.05817 24.681 7.08472C23.2117 7.11074 22.475 8.26123 21.7543 9.35025C21.7247 9.39506 21.7021 9.44459 21.6719 9.489C21.43 9.84471 21.5381 10.0894 21.9134 10.2455C22.087 10.3178 22.2759 10.3608 22.4375 10.4528C24.3239 11.5265 26.2259 12.5748 28.0812 13.7003C28.9242 14.2117 28.9728 15.1506 28.8734 16.0158C28.7916 16.7279 28.0639 16.6796 27.5568 16.8784C25.3104 17.7591 23.0683 18.6509 20.8254 19.5406C20.539 19.6542 20.257 19.7791 19.9463 19.9099C19.6963 19.0232 19.8697 18.4675 20.7116 18.1726C21.2915 17.9696 21.8222 17.6291 22.3973 17.4089C24.2625 16.6946 26.1381 16.0074 28.1773 15.2473C28.0251 15.1694 27.8913 15.1252 27.7866 15.0436C24.9704 12.8489 21.8442 11.284 18.3657 10.4674C15.8206 9.86995 13.263 9.65578 10.7445 10.6093C8.26691 11.5474 7.15534 13.542 7.73285 16.1149C8.36359 18.925 10.1814 20.9688 12.244 22.8302C12.6495 23.1961 13.0153 23 13.3998 22.729C14.6298 21.8624 15.8515 20.979 17.1285 20.1863C17.7774 19.7835 17.9832 19.2955 18.087 18.5638C18.3957 16.3879 18.8062 14.2257 19.2217 12.0668C19.2667 11.8329 19.6016 11.4916 19.8056 11.4891C20.1273 11.4852 20.606 11.5694 20.4763 12.2678ZM20.4305 31.5958C20.2066 31.1673 19.9283 30.7576 19.7721 30.3056C19.5641 29.7034 19.2554 29.7372 18.7298 29.9015C17.247 30.3647 15.7446 30.7683 14.2402 31.1573C13.6594 31.3075 13.0522 31.3551 12.4042 31.4578C13.9398 33.2662 20.2774 34.6457 21.9384 33.5989C21.4559 32.9649 20.9733 32.331 20.4305 31.5958ZM18.4561 9.16692C18.6642 9.21828 18.8838 9.24263 19.0783 9.32573C19.8824 9.66921 20.3518 9.38611 20.7472 8.63026C21.0519 8.04777 21.5497 7.56539 21.9695 7.0448C22.1386 6.83503 22.3285 6.64207 22.5463 6.39996C19.3221 5.42553 13.9494 6.71671 11.8192 8.93638C14.1168 8.53108 16.2275 8.69564 18.4561 9.16692ZM21.8637 29.2012C21.5363 29.142 21.2089 29.0828 20.8705 29.0216C20.7846 30.5072 22.6653 32.9269 24.0061 33.0565C24.4805 33.1024 25.0412 32.9862 25.4579 32.7552C26.5767 32.1349 27.2148 31.0834 27.7343 29.9684C25.7824 29.715 23.8903 29.4693 21.8637 29.2012ZM18.3391 25.1278C18.1992 23.8394 18.0593 22.5511 17.9005 21.0885C16.4545 22.0985 15.1322 23.0221 13.6027 24.0904C15.3484 25.0687 16.8828 25.9285 18.6063 26.8943C18.4966 26.1592 18.4301 25.7133 18.3391 25.1278ZM26.6347 26.0578C25.4929 26.7153 24.3511 27.3728 23.2093 28.0303C24.8657 28.5296 26.4765 28.6752 28.1054 28.3799C28.2632 28.3513 28.4818 28.1942 28.5221 28.0536C28.8653 26.8571 29.1736 25.6506 29.4924 24.4471C29.4196 24.4117 29.3467 24.3764 29.2738 24.341C28.4264 24.8909 27.5789 25.4408 26.6347 26.0578ZM33.1537 24.314C33.0941 23.5443 33.0583 22.7714 32.954 22.0078C32.9341 21.8627 32.5144 21.6289 32.4958 21.648C31.9265 22.2308 31.1507 22.7545 30.8908 23.4647C30.4631 24.6331 30.3663 25.9239 30.1467 27.1661C30.1181 27.3278 30.1877 27.5069 30.2119 27.6779C30.3856 27.6508 30.5827 27.6678 30.7293 27.5897C32.0041 26.9104 32.8873 25.9229 33.1537 24.314ZM31.8919 12.7073C31.1346 11.7248 30.3773 10.7422 29.6199 9.75965C29.4197 9.97679 29.3775 10.0616 29.3965 10.1292C29.7881 11.5221 30.1751 12.9165 30.5949 14.301C30.666 14.5353 30.8565 14.8741 31.0394 14.9081C31.6448 15.0207 32.2721 15.0159 32.9857 15.0623C32.8876 14.7499 32.8593 14.5934 32.7916 14.4563C32.5186 13.9036 32.2334 13.3569 31.8919 12.7073ZM33.6249 17.0976C33.1487 16.3369 32.16 16.0542 31.2291 16.4704C31.8111 17.2368 32.381 17.9873 32.9509 18.7378C33.0378 18.7397 33.1246 18.7417 33.2114 18.7436C33.3598 18.2343 33.5083 17.7249 33.6249 17.0976ZM31.4012 20.8715C32.305 19.9938 32.2521 19.4841 31.0274 18.6063C31.0274 19.3601 31.0164 20.0107 31.0393 20.6601C31.0427 20.7567 31.2056 20.8478 31.4012 20.8715ZM29.9417 29.2919C29.2874 29.3614 29.1065 29.7857 29.0855 30.3297C29.164 30.3837 29.2425 30.4377 29.321 30.4917C29.5652 30.091 29.8095 29.6904 29.9417 29.2919Z" fill="#FBF9FF"/>
<path d="M6.73332 13.5003C10.4152 13.5003 13.4 10.5156 13.4 6.83366C13.4 3.15176 10.4152 0.166992 6.73332 0.166992C3.05142 0.166992 0.0666504 3.15176 0.0666504 6.83366C0.0666504 10.5156 3.05142 13.5003 6.73332 13.5003Z" fill="url(#paint1_linear_1250_17)"/>
<path d="M6.73332 12.5003C9.86293 12.5003 12.4 9.96327 12.4 6.83366C12.4 3.70405 9.86293 1.16699 6.73332 1.16699C3.6037 1.16699 1.06665 3.70405 1.06665 6.83366C1.06665 9.96327 3.6037 12.5003 6.73332 12.5003Z" fill="black"/>
<g clip-path="url(#clip0_1250_17)">
<path d="M10.35 5.25419C10.35 5.13978 10.2912 5.0365 10.1929 4.97792L7.04201 3.10129C6.81561 2.96624 6.53438 2.96624 6.30798 3.10129L3.15715 4.97795C3.05998 5.03586 3.00162 5.13742 3.00004 5.25028C3.00009 5.38826 3.00016 5.61399 3.00018 5.752C2.99625 5.87083 3.05566 5.97892 3.15713 6.03938L4.26479 6.69933C4.28292 6.71014 4.28292 6.7364 4.26479 6.74718L3.15713 7.40689C3.05903 7.46539 3.00021 7.56841 3.00002 7.68261C3.00002 7.82267 3.00002 8.05181 3.00002 8.19186C3.00002 8.30654 3.05886 8.40979 3.15715 8.46814L6.30798 10.345C6.42118 10.4126 6.54802 10.4463 6.67513 10.4463C6.80223 10.4463 6.92881 10.4126 7.04201 10.345L10.1928 8.46814C10.2911 8.40979 10.35 8.30654 10.35 8.19186C10.35 8.05181 10.35 7.82267 10.35 7.68261C10.3498 7.56841 10.291 7.46539 10.1928 7.40691L9.08518 6.7472C9.06705 6.7364 9.06705 6.71014 9.08518 6.69936L10.1928 6.03941C10.2911 5.98083 10.35 5.87758 10.35 5.76314V5.25422L10.35 5.25419ZM6.45693 6.28887C6.5242 6.24892 6.59966 6.22879 6.67513 6.22879C6.75059 6.22879 6.8258 6.2489 6.89308 6.28887L7.62215 6.72328L6.89308 7.15745C6.75854 7.23764 6.59148 7.23764 6.45693 7.15745L5.72787 6.72328L6.45693 6.28887ZM9.62072 7.91371C9.63884 7.92451 9.63884 7.95077 9.62072 7.96158L6.89308 9.58617C6.75854 9.66636 6.59148 9.66636 6.45693 9.58617L3.72928 7.96155C3.71115 7.95075 3.71115 7.92449 3.72928 7.91371L4.24044 7.60915C4.34033 7.54961 4.40153 7.44192 4.40153 7.32562V6.84673C4.40153 6.81854 4.43223 6.80108 4.45646 6.81549L6.30798 7.91626C6.42118 7.98352 6.54802 8.01729 6.67513 8.01729C6.80223 8.01729 6.92881 7.98352 7.04201 7.91626L7.58227 7.59438C7.68278 7.53449 7.74408 7.42587 7.74339 7.30888L7.74069 6.85814C7.74053 6.82985 7.77132 6.8122 7.79565 6.8267L9.62072 7.91371ZM8.9425 6.5956C8.9425 6.62379 8.9118 6.64125 8.88757 6.62685L7.04201 5.53001C6.81561 5.39523 6.53438 5.39523 6.30798 5.53001L5.76426 5.85387C5.66373 5.91376 5.60243 6.02238 5.60312 6.13939L5.60591 6.60071C5.60603 6.62239 5.58244 6.63589 5.56381 6.6248L3.7293 5.53259C3.71117 5.52178 3.71115 5.49552 3.7293 5.48472L6.45693 3.86012C6.5242 3.81991 6.59966 3.7998 6.67513 3.7998C6.75059 3.7998 6.8258 3.81991 6.89308 3.86012L9.62072 5.48472C9.63884 5.49552 9.63884 5.52178 9.62072 5.53259L9.10362 5.84063C9.0037 5.90014 8.9425 6.00785 8.9425 6.12415V6.5956Z" fill="white"/>
</g>
<defs>
<linearGradient id="paint0_linear_1250_17" x1="20" y1="0" x2="20" y2="40" gradientUnits="userSpaceOnUse">
<stop stop-color="#B977FF"/>
<stop offset="1" stop-color="#606DC8"/>
</linearGradient>
<linearGradient id="paint1_linear_1250_17" x1="2.7059" y1="0.166992" x2="9.83529" y2="13.5003" gradientUnits="userSpaceOnUse">
<stop stop-color="#B977FF"/>
<stop offset="1" stop-color="#606DC8"/>
</linearGradient>
<clipPath id="clip0_1250_17">
<rect width="7.35" height="7.44631" fill="white" transform="translate(3 3)"/>
</clipPath>
</defs>
</svg>
