<svg width="40" height="40" viewBox="0 0 40 40" fill="none" xmlns="http://www.w3.org/2000/svg">
<path d="M20 40C31.0457 40 40 31.0457 40 20C40 8.95431 31.0457 0 20 0C8.95431 0 0 8.95431 0 20C0 31.0457 8.95431 40 20 40Z" fill="url(#paint0_linear_1210_2943)"/>
<path d="M38.4297 24.5962C35.8921 34.7749 25.5828 40.9694 15.4029 38.4312C5.2273 35.8936 -0.967238 25.5836 1.57146 15.4057C4.10794 5.22596 14.4173 -0.969042 24.594 1.56854C34.7731 4.10613 40.9673 14.4172 38.4294 24.5964L38.4296 24.5962H38.4297Z" fill="#F7931A"/>
<path d="M28.3781 17.293C28.7563 14.7645 26.8313 13.4053 24.199 12.4986L25.0529 9.07358L22.968 8.55406L22.1367 11.8889C21.5886 11.7522 21.0257 11.6234 20.4662 11.4957L21.3036 8.13884L19.2199 7.61932L18.3655 11.0433C17.9119 10.94 17.4664 10.8379 17.0342 10.7304L17.0366 10.7196L14.1615 10.0016L13.6068 12.2285C13.6068 12.2285 15.1537 12.5831 15.1211 12.6049C15.9654 12.8156 16.118 13.3745 16.0927 13.8175L15.12 17.7194C15.1781 17.7342 15.2535 17.7556 15.3367 17.789C15.2672 17.7717 15.1932 17.7529 15.1164 17.7345L13.7529 23.2005C13.6497 23.457 13.3878 23.842 12.7976 23.6958C12.8185 23.7261 11.2822 23.3176 11.2822 23.3176L10.2471 25.7042L12.9603 26.3806C13.465 26.5072 13.9597 26.6396 14.4468 26.7642L13.584 30.2285L15.6665 30.748L16.5209 27.3204C17.0898 27.4749 17.642 27.6174 18.1825 27.7516L17.3309 31.163L19.416 31.6826L20.2786 28.2247C23.8339 28.8976 26.5072 28.6263 27.6324 25.4106C28.5391 22.8215 27.5872 21.3282 25.7168 20.3543C27.0792 20.0402 28.1053 19.1442 28.3789 17.2932L28.3782 17.2928L28.3781 17.293ZM23.6145 23.9728C22.9702 26.5618 18.6111 25.1622 17.1978 24.8113L18.3427 20.2216C19.7559 20.5744 24.2879 21.2726 23.6146 23.9728H23.6145ZM24.2593 17.2554C23.6716 19.6105 20.0434 18.414 18.8665 18.1206L19.9045 13.9581C21.0814 14.2515 24.8716 14.799 24.2595 17.2554H24.2593Z" fill="white"/>
<path d="M6.73332 13.5C10.4152 13.5 13.4 10.5153 13.4 6.83335C13.4 3.15146 10.4152 0.166687 6.73332 0.166687C3.05142 0.166687 0.0666504 3.15146 0.0666504 6.83335C0.0666504 10.5153 3.05142 13.5 6.73332 13.5Z" fill="url(#paint1_linear_1210_2943)"/>
<path d="M6.73332 12.5C9.86293 12.5 12.4 9.96297 12.4 6.83335C12.4 3.70374 9.86293 1.16669 6.73332 1.16669C3.6037 1.16669 1.06665 3.70374 1.06665 6.83335C1.06665 9.96297 3.6037 12.5 6.73332 12.5Z" fill="black"/>
<g clip-path="url(#clip0_1210_2943)">
<path d="M10.35 5.25419C10.35 5.13978 10.2912 5.0365 10.1929 4.97792L7.04201 3.10129C6.81561 2.96624 6.53438 2.96624 6.30798 3.10129L3.15715 4.97795C3.05998 5.03586 3.00162 5.13742 3.00004 5.25028C3.00009 5.38826 3.00016 5.61399 3.00018 5.752C2.99625 5.87083 3.05566 5.97892 3.15713 6.03938L4.26479 6.69933C4.28292 6.71014 4.28292 6.7364 4.26479 6.74718L3.15713 7.40689C3.05903 7.46539 3.00021 7.56841 3.00002 7.68261C3.00002 7.82267 3.00002 8.05181 3.00002 8.19186C3.00002 8.30654 3.05886 8.40979 3.15715 8.46814L6.30798 10.345C6.42118 10.4126 6.54802 10.4463 6.67513 10.4463C6.80223 10.4463 6.92881 10.4126 7.04201 10.345L10.1928 8.46814C10.2911 8.40979 10.35 8.30654 10.35 8.19186C10.35 8.05181 10.35 7.82267 10.35 7.68261C10.3498 7.56841 10.291 7.46539 10.1928 7.40691L9.08518 6.7472C9.06705 6.7364 9.06705 6.71014 9.08518 6.69936L10.1928 6.03941C10.2911 5.98083 10.35 5.87758 10.35 5.76314V5.25422L10.35 5.25419ZM6.45693 6.28887C6.5242 6.24892 6.59966 6.22879 6.67513 6.22879C6.75059 6.22879 6.8258 6.2489 6.89308 6.28887L7.62215 6.72328L6.89308 7.15745C6.75854 7.23764 6.59148 7.23764 6.45693 7.15745L5.72787 6.72328L6.45693 6.28887ZM9.62072 7.91371C9.63884 7.92451 9.63884 7.95077 9.62072 7.96158L6.89308 9.58617C6.75854 9.66636 6.59148 9.66636 6.45693 9.58617L3.72928 7.96155C3.71115 7.95075 3.71115 7.92449 3.72928 7.91371L4.24044 7.60915C4.34033 7.54961 4.40153 7.44192 4.40153 7.32562V6.84673C4.40153 6.81854 4.43223 6.80108 4.45646 6.81549L6.30798 7.91626C6.42118 7.98352 6.54802 8.01729 6.67513 8.01729C6.80223 8.01729 6.92881 7.98352 7.04201 7.91626L7.58227 7.59438C7.68278 7.53449 7.74408 7.42587 7.74339 7.30888L7.74069 6.85814C7.74053 6.82985 7.77132 6.8122 7.79565 6.8267L9.62072 7.91371ZM8.9425 6.5956C8.9425 6.62379 8.9118 6.64125 8.88757 6.62685L7.04201 5.53001C6.81561 5.39523 6.53438 5.39523 6.30798 5.53001L5.76426 5.85387C5.66373 5.91376 5.60243 6.02238 5.60312 6.13939L5.60591 6.60071C5.60603 6.62239 5.58244 6.63589 5.56381 6.6248L3.7293 5.53259C3.71117 5.52178 3.71115 5.49552 3.7293 5.48472L6.45693 3.86012C6.5242 3.81991 6.59966 3.7998 6.67513 3.7998C6.75059 3.7998 6.8258 3.81991 6.89308 3.86012L9.62072 5.48472C9.63884 5.49552 9.63884 5.52178 9.62072 5.53259L9.10362 5.84063C9.0037 5.90014 8.9425 6.00785 8.9425 6.12415V6.5956Z" fill="white"/>
</g>
<defs>
<linearGradient id="paint0_linear_1210_2943" x1="20" y1="0" x2="20" y2="40" gradientUnits="userSpaceOnUse">
<stop stop-color="#B977FF"/>
<stop offset="1" stop-color="#606DC8"/>
</linearGradient>
<linearGradient id="paint1_linear_1210_2943" x1="2.7059" y1="0.166687" x2="9.83529" y2="13.5" gradientUnits="userSpaceOnUse">
<stop stop-color="#B977FF"/>
<stop offset="1" stop-color="#606DC8"/>
</linearGradient>
<clipPath id="clip0_1210_2943">
<rect width="7.35" height="7.44631" fill="white" transform="translate(3 3)"/>
</clipPath>
</defs>
</svg>
